<svg xmlns="http://www.w3.org/2000/svg" xmlns:xlink="http://www.w3.org/1999/xlink" width="1542.525" height="712.777" viewBox="0 0 1542.525 712.777"><defs><clipPath id="a"><rect width="1542.525" height="712.777" fill="none"></rect></clipPath></defs><path d="M420.292,552.6H402.464v82.51H384.972V552.6H367.144v-16.16h53.148Z"></path><path d="M993.948,552.6H976.12v82.51H958.628V552.6H940.8v-16.16h53.147Z"></path><g clip-path="url(#a)"><path d="M470.994,635.106V593.6a2.628,2.628,0,0,0-2.628-2.627H452.955v44.135h-14.2V540.832a4.4,4.4,0,0,1,4.4-4.4h38.709A10.368,10.368,0,0,1,492.225,546.8v23.645c0,8.422-2.283,13.669-10.705,13.669,8.422,0,10.705,4.868,10.705,11.028v39.961Zm-15.395-55.4h12.654a2.741,2.741,0,0,0,2.741-2.74V550.345a2.644,2.644,0,0,0-2.644-2.644H455.6a2.644,2.644,0,0,0-2.644,2.644v26.717a2.644,2.644,0,0,0,2.644,2.644"></path><path d="M563.885,551.687v83.42H542.476V590.971h-18.25v44.136H510.3v-83.42a15.227,15.227,0,0,1,15.137-15.25h23.2a15.251,15.251,0,0,1,15.251,15.25m-21.409-.912v-.429a2.644,2.644,0,0,0-2.644-2.644H526.87a2.643,2.643,0,0,0-2.644,2.643v26.718a2.644,2.644,0,0,0,2.644,2.644h12.962a2.644,2.644,0,0,0,2.644-2.644Z"></path><path d="M641.754,536.437v98.67H618.593l-5.248-.113L597.98,583.769a1.109,1.109,0,0,0-2.172.319v51.019h-14.2v-98.67h16.16l5.248.114,15.275,53.218a1.11,1.11,0,0,0,2.176-.318l-.556-53.014Z"></path><path d="M734.761,536.437h33.907a15.251,15.251,0,0,1,15.25,15.251v24.147a15.136,15.136,0,0,1-15.136,15.136H744.559v44.136h-14.2V540.841a4.4,4.4,0,0,1,4.4-4.4m27.748,40.626V550.587a2.885,2.885,0,0,0-2.885-2.885H747.445a2.886,2.886,0,0,0-2.886,2.885v26.476a2.644,2.644,0,0,0,2.644,2.644h12.662a2.644,2.644,0,0,0,2.644-2.644"></path><path d="M853.407,551.687v68.284a15.227,15.227,0,0,1-15.25,15.136H814.812a15.2,15.2,0,0,1-15.136-15.136V551.687a15.227,15.227,0,0,1,15.136-15.25h23.345a15.25,15.25,0,0,1,15.25,15.25M832,550.345a2.644,2.644,0,0,0-2.644-2.644H816.522a2.644,2.644,0,0,0-2.644,2.644V621.2a2.644,2.644,0,0,0,2.644,2.643h12.832A2.644,2.644,0,0,0,832,621.2V550.345Z"></path><rect width="20.43" height="98.67" transform="translate(1155.262 536.437)"></rect><path d="M1360.251,555.67V575.1a2.644,2.644,0,0,0,2.644,2.643h31.384v16.161H1362.9a2.644,2.644,0,0,0-2.644,2.644V616.3a2.651,2.651,0,0,0,2.644,2.643h31.384v16.161h-35.052a15.181,15.181,0,0,1-15.136-15.136V551.687a15.227,15.227,0,0,1,15.136-15.25h35.052V552.6H1363.21a3.038,3.038,0,0,0-2.959,3.073"></path><path d="M1326.014,536.438v98.67h-23.161l-5.248-.114-15.364-51.224a1.11,1.11,0,0,0-2.173.318v51.02h-14.2v-98.67h16.16l5.248.113,15.276,53.218a1.109,1.109,0,0,0,2.175-.317l-.556-53.014Z"></path><path d="M690.889,635.107H670.06c-8.214,0-12.522-6.946-12.522-14.048v-3.524h19.541c0,.122,0,.241,0,.359.074,4.144,1.475,5.948,6.306,5.948h6.47a3.038,3.038,0,0,0,3.073-2.959V594.512a2.959,2.959,0,0,0-2.959-2.959h-17.3A15.227,15.227,0,0,1,657.538,576.3V551.687a15.227,15.227,0,0,1,15.136-15.25H701.8c8.214,0,12.522,6.946,12.522,14.048v4.5h-20.27v-1.051c-.015-4.349-1.368-6.236-6.308-6.236H674.384a2.643,2.643,0,0,0-2.644,2.643V577.1a3.037,3.037,0,0,0,2.959,3.072h24.369a15.228,15.228,0,0,1,15.251,15.137v24.661a15.227,15.227,0,0,1-15.251,15.136Z" fill="#010001"></path><path d="M1100.029,635.107h24.582c8.214,0,12.522-6.946,12.522-14.048V609.785h-20.27v7.79c-.008,4.371-1.355,6.267-6.308,6.267h-9.948a3.013,3.013,0,0,1-2.959-2.959V550.775a3.037,3.037,0,0,1,2.959-3.073h9.948c4.953,0,6.3,1.9,6.308,6.267v7.791h20.27V550.485c0-7.1-4.308-14.048-12.522-14.048h-27.987a15.227,15.227,0,0,0-15.137,15.25v68.284a15.2,15.2,0,0,0,15.137,15.136Z" fill="#010001"></path><path d="M903.875,635.106V593.6a2.628,2.628,0,0,0-2.628-2.627H885.836v44.135h-14.2V540.832a4.4,4.4,0,0,1,4.4-4.4h38.709A10.367,10.367,0,0,1,925.1,546.8v23.645c0,8.422-2.282,13.669-10.7,13.669,8.422,0,10.7,4.868,10.7,11.028v39.961Zm-15.4-55.4h12.653a2.741,2.741,0,0,0,2.742-2.74V550.345a2.645,2.645,0,0,0-2.645-2.644H888.48a2.644,2.644,0,0,0-2.644,2.644v26.717a2.644,2.644,0,0,0,2.644,2.644"></path><path d="M1063.3,551.687v83.42h-21.409V590.971h-18.25v44.136h-13.93v-83.42a15.227,15.227,0,0,1,15.137-15.25h23.2a15.251,15.251,0,0,1,15.251,15.25m-21.409-.912v-.429a2.644,2.644,0,0,0-2.644-2.644h-12.962a2.643,2.643,0,0,0-2.644,2.643v26.718a2.644,2.644,0,0,0,2.644,2.644h12.962a2.644,2.644,0,0,0,2.644-2.644Z"></path><path d="M1247.665,551.687v68.284a15.227,15.227,0,0,1-15.251,15.136H1209.07a15.2,15.2,0,0,1-15.136-15.136V551.687a15.227,15.227,0,0,1,15.136-15.25h23.344a15.251,15.251,0,0,1,15.251,15.25m-21.409-1.342a2.644,2.644,0,0,0-2.644-2.644h-12.833a2.643,2.643,0,0,0-2.643,2.644V621.2a2.643,2.643,0,0,0,2.643,2.643h12.833a2.644,2.644,0,0,0,2.644-2.643V550.345Z"></path><path d="M1443.352,635.107h-20.829c-8.213,0-12.522-6.946-12.522-14.048v-3.524h19.541c0,.122,0,.241,0,.359.075,4.144,1.475,5.948,6.306,5.948h6.47a3.038,3.038,0,0,0,3.073-2.959V594.512a2.959,2.959,0,0,0-2.959-2.959h-17.3A15.228,15.228,0,0,1,1410,576.3V551.687a15.227,15.227,0,0,1,15.136-15.25h29.123c8.214,0,12.522,6.946,12.522,14.048v4.5h-20.27v-1.051c-.014-4.349-1.368-6.236-6.308-6.236h-13.357a2.643,2.643,0,0,0-2.644,2.643V577.1a3.037,3.037,0,0,0,2.959,3.072h24.37a15.228,15.228,0,0,1,15.25,15.137v24.661a15.227,15.227,0,0,1-15.25,15.136Z" fill="#010001"></path><path d="M609.553,494.681H717.158V126.066H609.645V259.453l0,.554a27.276,27.276,0,1,1-54.553,0V126.066H475.652V494.681H555V364.821l0-.554a27.277,27.277,0,1,1,54.554,0V494.681Z" fill="#010001"></path><path d="M898.613,417.079a33.155,33.155,0,0,1-33.156,33.156l-8.1-.057A33.156,33.156,0,0,1,824.2,417.021l-.036-24.859V213.1l.047-8.324a33.155,33.155,0,0,1,33.156-33.156l5.626.057a33.155,33.155,0,0,1,33.155,33.156h111.68V196.7a70.632,70.632,0,0,0-70.632-70.633H824.162a79.8,79.8,0,0,0-79.795,79.795V414.886a79.8,79.8,0,0,0,79.795,79.8H937.2a69.341,69.341,0,0,0,69.341-69.341V315.14H848.775v18.006h16.691A33.156,33.156,0,0,1,898.621,366.3Z" fill="#010001"></path><path d="M413.175,74.892v237.26L265.046,502.271a35.558,35.558,0,0,0-2.716,39.686l53.376,92.1H150.265L83.367,524a34.733,34.733,0,0,1,2.55-39.729Z" fill="#721012"></path><path d="M206,634.057H176.591L112.528,524.741a30.05,30.05,0,0,1,2.608-34.061L413.175,125.123v46.854L150.04,494.448c-12.291,13.758-5.4,26.453-2.2,31.92,14.562,24.874,52.707,89.782,63.192,107.693Z" fill="#f5d21d"></path><path d="M244.179,634.057,180.248,528.138a25.8,25.8,0,0,1,2.117-29.507l230.81-283.306v46.858L219.365,499.927a28.089,28.089,0,0,0-2.31,32.209l61.2,101.921Z" fill="#f5d21d"></path></g></svg>