<svg xmlns="http://www.w3.org/2000/svg" xmlns:xlink="http://www.w3.org/1999/xlink" width="1034.874" height="396.869" viewBox="0 0 1034.874 396.869"><defs><clipPath id="a"><rect width="1034.874" height="396.869" fill="none"></rect></clipPath></defs><g clip-path="url(#a)"><path d="M224.787,325.772l50.473,0a28.381,28.381,0,0,0,14.365-2.406,24.338,24.338,0,0,0,8.741-5.589c16.974-15.9,15.269-46.5-3.4-60.525l-1.976-1.31,1.149-1.966c5.2-8.984,6.159-18.583,3.726-28.605-3.557-14.656-15-25.105-29.473-26.113-8.143-.567-16.353-.161-26.207-.251l11.22,21.675c6.356-.325,11.86-.244,16.613,1.507a10.945,10.945,0,0,1,7.354,9.044c1.471,9.547-2.445,16.214-11.757,18.952-7.969,2.344-16.18,2.018-26.265,2.037l10.406,20.183c8,.247,19.7-.923,28,1.379,4.225,1.171,8.035,3.138,9.992,7.409,4.054,8.849.351,18.051-8.7,21.6a37.652,37.652,0,0,1-5.432,1.632H237.753l-.418-1.023c-2.727-5.32-5.425-10.655-8.156-15.974q-20.414-39.759-40.842-79.511c-1.472-2.863-2.986-5.706-4.672-8.923L118.577,325.895c7.585,0,24.174-.01,24.174-.01,10.7-21.164,22.553-44.509,33.323-65.636,2.463-4.831,4.955-9.647,7.639-14.869,3.932,7.728,7.618,15,11.327,22.256,9.746,19.066,29.746,58.135,29.746,58.135" transform="translate(-47.563 -79.803)" fill="#253339"></path><path d="M450.3,307.941c16.916,12.42,33.7,19.5,53.161,18.972a74.59,74.59,0,0,0,16.65-1.292c18.9-3.861,31.646-14.575,32.9-33.986.789-12.211-2.127-22.967-12.16-30.892-5.58-4.408-12.074-6.975-18.885-8.637-9-2.2-18.082-4.032-27.1-6.134-4.557-1.062-9.086-2.324-13.068-4.92-7.681-5.008-7.725-12.417-.59-18.224,7.113-5.789,18.028-5.23,27.391-3.343,8.551,1.724,16.028,5.919,24.584,11.481l14-19.1c-6.336-4.157-11.242-7.6-16.724-10.042-17.271-7.683-35.115-7.98-52.921-2.755-18.826,5.524-28.349,21.181-25.407,40.515,1.871,12.294,9.714,19.918,20.5,25,9.413,4.438,19.611,5.885,29.694,7.815,6.546,1.253,13.169,2.345,19.209,5.418,7.721,3.927,9.395,11.668,3.99,18.443a20.035,20.035,0,0,1-9.041,6.132c-7.875,2.915-15.87,2.544-23.836.549-9.925-2.487-18.474-7.854-28.554-14.362Z" transform="translate(-180.62 -78.432)" fill="#253339"></path><path d="M1034.059,199.834c.1,25.54-.074,53.324.266,78.861a49.5,49.5,0,0,0,12.488,32.872c8.056,9.142,18.444,14.177,30.313,16.028,14.979,2.336,29.553.979,42.762-7.1,16.229-9.931,22.875-25.34,23.1-43.685.3-24.741.082-52.209.047-76.953l-24.367.026c-.04,23.248-.033,49.524-.027,72.772a62.379,62.379,0,0,1-.637,10.139,27.89,27.89,0,0,1-21.483,23.05c-13.085,2.977-25.438-1.24-32.228-10.9-4.249-6.046-5.679-12.818-5.669-20.066.034-24.146-.031-50.9.065-75.041Z" transform="translate(-414.775 -80.156)" fill="#253339"></path><path d="M1294.077,325.854c-.1-16.557-.061-89.04-.039-105.2,0,0,23.954-.02,36.132,0l.059-21.631c-33.126.035-64.007.046-97.028-.017v21.681c11.873-.09,26.764-.04,36.44-.039v.1c-.012,32.517.013,72.641-.08,105.157Z" transform="translate(-494.653 -79.825)" fill="#253339"></path><path d="M962.08,304.651c-20.245-.041-46.44-.093-66.684.041l0-.105c.089-32.51.066-72.307.028-104.817l-24.544.033c.055,40.4.047,85.968-.017,126.365v.111c28.729-.092,62.526-.055,91.255-.086Z" transform="translate(-349.315 -80.13)" fill="#253339"></path><path d="M1411.756,199.236c-.007,39.641-.007,87.049,0,126.69h3.112q24.645.073,49.29.034c12.846,0,27.782-.028,40.627.034l.035-21.974c-20.553-.027-44.337-.082-64.888.052-.22,0-3.707,0-3.926,0l0-.144c.123-8.668,0-20.7-.028-29.366l0-.144c3.989.032,8.536,0,12.526,0,15.761-.026,29.91.025,45.672-.016l3.231.017.05-2.668c.048-5.484-.1-14.08.086-19.558h-.041c-18.449.107-43.033.014-61.482.1l-.015,0c.153-8.573.144-22.926,0-31.5v-.135c18.948.1,66.338-.057,69.125-.108l.067,0c-.007-6.279-.033-15.142.008-21.421h-.014c-29.706,0-63.737,0-93.443.025Z" transform="translate(-566.272 -79.87)" fill="#253339"></path><path d="M700.41,195.039a66.084,66.084,0,0,0-66.679,65.74c-.143,36.07,29.275,65.723,65.487,66.009,36.342.287,66.093-29.345,66.138-65.872.044-35.908-29.363-65.737-64.945-65.877m4.835,108.489c-17.156,2.575-30.409-4.766-39.742-18.875-17.71-26.77-.927-59.989,26.344-65.938a32.236,32.236,0,0,1,7.642-.674c22.73.014,41.925,20.365,41.453,43.539-.422,20.759-15.444,38.908-35.7,41.948" transform="translate(-254.197 -78.232)" fill="#253339"></path><path d="M700.6,467.558c0,3.04-.253,9.259-.3,9.311-3.384,3.7-7.136,4.144-12.486,4.144-8.748,0-13.534-7.075-13.534-15.662,0-8.627,4.826-15.075,13.493-15.075a15.973,15.973,0,0,1,11.477,4.815l-2.568,2.849a11.619,11.619,0,0,0-8.828-3.893c-6.5,0-9.481,4.883-9.481,11.344,0,6.421,3.781,10.508,9.478,11.088,2.758.281,6.568-.15,8.262-1.843.349-.349.224-2.966.224-5.794h-3.117l-2.4-3.852H700.6Z" transform="translate(-270.463 -180.612)" fill="#253339"></path><path d="M751.449,480.84l-9.939-12.92h-5.1v12.92h-4.093V451.147h10.914c5.858,0,9.831,2.488,9.831,8.386,0,4.735-2.528,7.464-7.062,8.146l10.14,13.161Zm-8.254-16.813c3.371,0,5.778-.923,5.778-4.454,0-3.17-1.966-4.535-5.778-4.535h-6.781v8.989Z" transform="translate(-293.743 -180.961)" fill="#253339"></path><path d="M800.514,451.148h4.093V467.72c0,9.028-5.176,13.643-12.559,13.643-7.343,0-12.56-4.614-12.56-13.643V451.148h4.133v15.128c0,7.3,2.608,11.355,8.427,11.355s8.466-4.053,8.466-11.355Z" transform="translate(-312.663 -180.961)" fill="#253339"></path><path d="M837.912,480.841V451.148h9.028c6.38,0,10.594,3.29,10.594,9.59,0,6.019-3.852,9.59-10.594,9.59H842v10.513Zm8.948-14.406c3.893,0,6.581-1.685,6.581-5.658,0-3.651-2.207-5.738-6.581-5.738H842v11.4Z" transform="translate(-336.098 -180.961)" fill="#253339"></path><path d="M897.191,481.013a15.369,15.369,0,1,1,15.488-15.368,15.32,15.32,0,0,1-15.488,15.368m11.4-15.328a11.417,11.417,0,1,0-11.4,11.6,11.45,11.45,0,0,0,11.4-11.6" transform="translate(-353.646 -180.612)" fill="#253339"></path><path d="M974.612,480.841v-25.8h-9.47v-3.892h23.033v3.892h-9.43v25.8Z" transform="translate(-387.131 -180.961)" fill="#253339"></path><path d="M1034.525,480.84l-9.34-12.92h-5.1v12.92H1016V451.147h10.914c5.859,0,9.831,2.488,9.831,8.386,0,4.735-2.528,7.464-7.062,8.146l9.541,13.161Zm-7.655-16.813c3.371,0,5.778-.923,5.778-4.454,0-3.17-1.966-4.535-5.778-4.535h-6.781v8.989Z" transform="translate(-407.529 -180.961)" fill="#253339"></path><path d="M1084.163,480.84l-2.648-6.941h-14.841l-2.648,6.941h-4.414l12.875-29.693h4.494l11.676,29.693Zm-9.43-24.717-6.575,13.924h11.872Z" transform="translate(-425.024 -180.961)" fill="#253339"></path><path d="M1139.126,480.841l-16.738-24.317v24.317H1118.3V451.148h5.3l15.7,22.832V451.148h4.093v29.693Z" transform="translate(-448.563 -180.961)" fill="#253339"></path><path d="M1175.142,473.148c1.645,2.047,3.812,4.133,7.062,4.133,3.411,0,5.538-2.327,5.538-4.935,0-6.54-13.683-4.052-13.683-13.763,0-4.815,3.411-8.306,9.229-8.306a11.536,11.536,0,0,1,7.7,2.809l-2.288,3.13a8.2,8.2,0,0,0-5.578-2.167c-3.209,0-4.976,1.686-4.976,4.093,0,6.741,13.683,3.852,13.683,13.924,0,5.337-3.892,8.949-9.51,8.949a11.688,11.688,0,0,1-9.75-5.016Z" transform="translate(-470.335 -180.612)" fill="#253339"></path><path d="M1219,480.841V451.148h9.028c6.38,0,10.593,3.29,10.593,9.59,0,6.019-3.852,9.59-10.593,9.59h-4.935v10.513Zm8.948-14.406c3.892,0,6.581-1.685,6.581-5.658,0-3.651-2.207-5.738-6.581-5.738h-4.855v11.4Z" transform="translate(-488.955 -180.961)" fill="#253339"></path><path d="M1277.615,481.013a15.369,15.369,0,1,1,15.489-15.368,15.32,15.32,0,0,1-15.489,15.368m11.4-15.328a11.417,11.417,0,1,0-11.4,11.6,11.45,11.45,0,0,0,11.4-11.6" transform="translate(-506.239 -180.612)" fill="#253339"></path><path d="M1345.671,480.84l-9.34-12.92h-5.1v12.92h-4.093V451.147h10.914c5.859,0,9.831,2.488,9.831,8.386,0,4.735-2.528,7.464-7.062,8.146l9.541,13.161Zm-7.655-16.813c3.371,0,5.778-.923,5.778-4.454,0-3.17-1.966-4.535-5.778-4.535h-6.781v8.989Z" transform="translate(-532.334 -180.961)" fill="#253339"></path><path d="M1378.084,480.841v-25.8h-9.47v-3.892h23.033v3.892h-9.429v25.8Z" transform="translate(-548.969 -180.961)" fill="#253339"></path><rect width="4.093" height="29.693" transform="translate(850.903 270.187)" fill="#253339"></rect><path d="M1445.284,473.148c1.645,2.047,3.812,4.133,7.062,4.133,3.411,0,5.538-2.327,5.538-4.935,0-6.54-13.683-4.052-13.683-13.763,0-4.815,3.411-8.306,9.229-8.306a11.536,11.536,0,0,1,7.7,2.809l-2.288,3.13a8.2,8.2,0,0,0-5.577-2.167c-3.209,0-4.976,1.686-4.976,4.093,0,6.741,13.683,3.852,13.683,13.924,0,5.337-3.892,8.949-9.51,8.949a11.688,11.688,0,0,1-9.75-5.016Z" transform="translate(-578.692 -180.612)" fill="#253339"></path><path d="M1492.251,480.841v-25.8h-9.47v-3.892h23.033v3.892h-9.429v25.8Z" transform="translate(-594.763 -180.961)" fill="#253339"></path><path d="M1545.666,480.84l-2.648-6.941h-14.242l-2.648,6.941h-4.414l12.276-29.693h4.494l11.677,29.693Zm-9.429-24.717-5.976,13.924h11.273Z" transform="translate(-610.379 -180.961)" fill="#253339"></path><path d="M256.384,199.6,267.1,220.445h23.272l-10.776-20.786Z" transform="translate(-102.839 -80.06)" fill="#f06623"></path><path d="M119.184,458.6l10.466,20.094H431.907l-10.257-20.3Z" transform="translate(-47.806 -183.866)" fill="#f06623"></path></g></svg>