<svg xmlns="http://www.w3.org/2000/svg" xmlns:xlink="http://www.w3.org/1999/xlink" width="1661.15" height="449.555" viewBox="0 0 1661.15 449.555"><defs><clipPath id="a"><rect width="1661.15" height="449.555" fill="none"></rect></clipPath></defs><g clip-path="url(#a)"><path d="M393.783,547.859v12.268a1.668,1.668,0,0,0,1.669,1.668h19.811V572H395.451a1.669,1.669,0,0,0-1.669,1.669v12.467a1.673,1.673,0,0,0,1.669,1.668h19.811V598H393.136a9.583,9.583,0,0,1-9.554-9.555v-43.1a9.612,9.612,0,0,1,9.554-9.627h22.126v10.2H395.651a1.917,1.917,0,0,0-1.868,1.939" transform="translate(-141.92 -198.209)"></path><path d="M478.937,588.039v10.2H459.765a9.593,9.593,0,0,1-9.55-9.551V535.98h10.2v50.193a1.9,1.9,0,0,0,1.867,1.867Z" transform="translate(-166.574 -198.306)"></path><path d="M735.579,140.721h-16.3v75.436H703.287V140.721h-16.3V125.946h48.591Z" transform="translate(-254.176 -46.598)"></path><path d="M1213.361,216.157v-37.95a2.4,2.4,0,0,0-2.4-2.4h-14.09v40.352h-12.984V129.965a4.019,4.019,0,0,1,4.02-4.019h35.39a9.477,9.477,0,0,1,9.478,9.477v21.618c0,7.7-2.087,12.5-9.787,12.5,7.7,0,9.787,4.452,9.787,10.083v36.535Zm-14.074-50.651h11.569a2.506,2.506,0,0,0,2.506-2.506V138.662a2.417,2.417,0,0,0-2.417-2.417h-11.658a2.417,2.417,0,0,0-2.417,2.417v24.427a2.418,2.418,0,0,0,2.417,2.417" transform="translate(-438.022 -46.598)"></path><path d="M534.316,139.888v76.269H514.743V175.805H498.057v40.352H485.322V139.888a13.921,13.921,0,0,1,13.839-13.942h21.213a13.944,13.944,0,0,1,13.943,13.942m-19.573-.833v-.391a2.418,2.418,0,0,0-2.417-2.418H500.475a2.417,2.417,0,0,0-2.418,2.417V163.09a2.418,2.418,0,0,0,2.418,2.417h11.851a2.418,2.418,0,0,0,2.417-2.417Z" transform="translate(-179.563 -46.598)"></path><path d="M1087.139,125.946h31a13.943,13.943,0,0,1,13.942,13.943v22.078a13.838,13.838,0,0,1-13.838,13.839H1096.1v40.352h-12.985V129.972a4.026,4.026,0,0,1,4.026-4.026m25.37,37.143V138.883a2.638,2.638,0,0,0-2.638-2.638h-11.135a2.638,2.638,0,0,0-2.638,2.638v24.206a2.417,2.417,0,0,0,2.417,2.417h11.577a2.417,2.417,0,0,0,2.417-2.417" transform="translate(-400.738 -46.598)"></path><path d="M634.986,125.929a.289.289,0,0,1,.289.289v76.095a13.922,13.922,0,0,1-13.943,13.839H600.277a14.168,14.168,0,0,1-14.127-14.127V126.218a.288.288,0,0,1,.288-.288h12.408a.289.289,0,0,1,.289.289v58.815c0,.835.015,9.783.025,15.668a5.15,5.15,0,0,0,5.148,5.14l6.214.008a5.179,5.179,0,0,0,5.18-5.179V126.219a.288.288,0,0,1,.289-.288Z" transform="translate(-216.868 -46.592)"></path><path d="M836.592,139.889v62.43a13.921,13.921,0,0,1-13.943,13.838H801.306a13.9,13.9,0,0,1-13.838-13.838v-62.43a13.922,13.922,0,0,1,13.838-13.943h21.343a13.944,13.944,0,0,1,13.943,13.943m-19.573-1.227a2.417,2.417,0,0,0-2.417-2.417H802.869a2.417,2.417,0,0,0-2.417,2.417v64.779a2.417,2.417,0,0,0,2.417,2.417H814.6a2.417,2.417,0,0,0,2.417-2.417V138.662Z" transform="translate(-291.353 -46.598)"></path><path d="M903.032,143.53V161.3a2.417,2.417,0,0,0,2.417,2.417h28.695v14.775H905.449a2.417,2.417,0,0,0-2.417,2.417v18.056a2.424,2.424,0,0,0,2.417,2.417h28.695v14.775H902.1a13.88,13.88,0,0,1-13.839-13.838V139.888A13.922,13.922,0,0,1,902.1,125.946h32.047v14.775H905.738a2.777,2.777,0,0,0-2.706,2.809" transform="translate(-328.643 -46.598)"></path><path d="M1299.282,143.53V161.3a2.417,2.417,0,0,0,2.417,2.417h28.694v14.775H1301.7a2.418,2.418,0,0,0-2.417,2.417v18.056a2.425,2.425,0,0,0,2.417,2.417h28.694v14.775h-32.047a13.88,13.88,0,0,1-13.84-13.838V139.888a13.922,13.922,0,0,1,13.84-13.942h32.047v14.775h-28.4a2.777,2.777,0,0,0-2.707,2.809" transform="translate(-475.251 -46.598)"></path><path d="M1411.167,216.157h-19.043c-7.509,0-11.448-6.351-11.448-12.843v-3.223h17.866c0,.112,0,.22,0,.329.067,3.788,1.348,5.438,5.764,5.438h5.916a2.777,2.777,0,0,0,2.809-2.705v-24.11a2.705,2.705,0,0,0-2.705-2.706h-15.815a13.921,13.921,0,0,1-13.838-13.942V139.888a13.921,13.921,0,0,1,13.838-13.942h26.626c7.51,0,11.449,6.351,11.449,12.843v4.118h-18.532v-.961c-.014-3.976-1.25-5.7-5.767-5.7h-12.212a2.418,2.418,0,0,0-2.417,2.417v24.462a2.777,2.777,0,0,0,2.706,2.809h22.281a13.922,13.922,0,0,1,13.943,13.839v22.547a13.922,13.922,0,0,1-13.943,13.838Z" transform="translate(-510.832 -46.598)" fill="#010001"></path><path d="M1512.256,216.157h-19.043c-7.509,0-11.448-6.351-11.448-12.843v-3.223h17.866c0,.112,0,.22,0,.329.068,3.788,1.348,5.438,5.765,5.438h5.916a2.777,2.777,0,0,0,2.809-2.705v-24.11a2.706,2.706,0,0,0-2.705-2.706H1495.6a13.921,13.921,0,0,1-13.838-13.942V139.888a13.921,13.921,0,0,1,13.838-13.942h26.627c7.509,0,11.448,6.351,11.448,12.843v4.118h-18.532v-.961c-.014-3.976-1.25-5.7-5.767-5.7h-12.212a2.417,2.417,0,0,0-2.417,2.417v24.462a2.777,2.777,0,0,0,2.705,2.809h22.281a13.922,13.922,0,0,1,13.943,13.839v22.547a13.922,13.922,0,0,1-13.943,13.838Z" transform="translate(-548.234 -46.598)" fill="#010001"></path><path d="M1016.033,167.9l19.765,48.26h-21.621l-10.4-25.034-11.2,25.034H978.516l18.445-42.453-20.031-47.725h21.577l9.163,22,.852,1.944,11.129-23.94h13.558Z" transform="translate(-361.452 -46.612)"></path><path d="M1805.555,315.025l-42.541,0a.645.645,0,0,0-.646.645V482.4a11.6,11.6,0,0,1-11.6,11.6l-13.917-.017a11.532,11.532,0,0,1-11.526-11.51c-.023-13.179-.057-33.218-.057-35.089V315.676a.645.645,0,0,0-.645-.646l-27.786,0a.645.645,0,0,0-.645.646V485.432a31.728,31.728,0,0,0,31.635,31.635h47.15a31.176,31.176,0,0,0,31.224-30.99V315.67a.645.645,0,0,0-.646-.645" transform="translate(-627.569 -116.555)" fill="#010001"></path><path d="M2206.776,263.79c9.666,2.327,16.584,4.117,27.568,6.892,17.908,4.526,29.5-14.886,29.5-29.5h-22.055c0,3.032-2.081,8.731-7.443,7.443-9.134-2.194-15.1-3.984-27.568-6.892-15.035-3.507-29.222,14.06-29.222,29.5h22.054c0-3.309,1.807-8.734,7.168-7.443" transform="translate(-805.667 -89.235)" fill="#010001"></path><path d="M1922.988,345.274v139.8a31.081,31.081,0,0,0,30.99,30.99h71.767V482.982h-64.257a5.429,5.429,0,0,1-5.413-5.413V437.133a5.413,5.413,0,0,1,5.413-5.413h64.257V398.633h-64.257a5.412,5.412,0,0,1-5.413-5.412V353.429a6.219,6.219,0,0,1,6.059-6.291h63.611V314.051h-71.767a31.176,31.176,0,0,0-30.99,31.223" transform="translate(-711.481 -116.195)" fill="#010001"></path><path d="M647.51,314.051h-57.3a31.176,31.176,0,0,0-30.99,31.223v139.8a31.127,31.127,0,0,0,30.99,30.99h57.3c16.817,0,25.637-14.221,25.637-28.761V464.222h-41.5v15.951c-.018,8.948-2.776,12.832-12.917,12.832H598.363a6.17,6.17,0,0,1-6.059-6.058V343.406a6.22,6.22,0,0,1,6.059-6.291H618.73c10.141,0,12.9,3.883,12.917,12.833V365.9h41.5V342.812c0-14.539-8.82-28.761-25.637-28.761" transform="translate(-206.903 -116.195)" fill="#010001"></path><path d="M1320.094,314.051H1240.84a9,9,0,0,0-9,9V516.068h29.077V425.705h31.553a5.379,5.379,0,0,1,5.378,5.379v84.984h43.469V434.253c0-12.613-4.673-22.581-21.916-22.581,17.243,0,21.916-10.743,21.916-27.986v-48.41a21.224,21.224,0,0,0-21.224-21.225m-22.245,82.979a5.612,5.612,0,0,1-5.612,5.612H1266.33a5.413,5.413,0,0,1-5.413-5.413v-54.7a5.413,5.413,0,0,1,5.413-5.413h26.105a5.413,5.413,0,0,1,5.413,5.413Z" transform="translate(-455.765 -116.195)" fill="#010001"></path><path d="M1084.419,314.051h-47.5a31.176,31.176,0,0,0-30.99,31.223V516.068h28.52V425.705h37.364v90.363h43.833V345.274a31.225,31.225,0,0,0-31.224-31.223m-12.61,29.355V397.23a5.412,5.412,0,0,1-5.413,5.412h-26.538a5.413,5.413,0,0,1-5.413-5.412v-54.7a5.413,5.413,0,0,1,5.413-5.412H1066.4a5.413,5.413,0,0,1,5.413,5.414Z" transform="translate(-372.179 -116.195)" fill="#010001"></path><path d="M2462.654,314.051h-47.8a31.176,31.176,0,0,0-30.99,31.223v139.8a31.127,31.127,0,0,0,30.99,30.99h47.8a31.176,31.176,0,0,0,31.223-30.99v-139.8a31.225,31.225,0,0,0-31.223-31.223m-12.609,172.9v.645a5.413,5.413,0,0,1-5.413,5.413h-26.274a5.413,5.413,0,0,1-5.413-5.413V342.528a5.413,5.413,0,0,1,5.413-5.413h26.274a5.413,5.413,0,0,1,5.413,5.413Z" transform="translate(-882 -116.195)" fill="#010001"></path><path d="M1543.966,314.052h-55.987a31.176,31.176,0,0,0-30.99,31.222v139.8a31.127,31.127,0,0,0,30.99,30.99h8.175v21.488h25.188V516.069h22.624a31.177,31.177,0,0,0,31.224-30.99v-139.8a31.224,31.224,0,0,0-31.224-31.222m-12.61,172.9v.645a5.413,5.413,0,0,1-5.413,5.414h-4.6V471.64h-25.188v21.366h-4.675a5.413,5.413,0,0,1-5.413-5.414V342.527a5.413,5.413,0,0,1,5.413-5.413h34.465a5.413,5.413,0,0,1,5.413,5.413Z" transform="translate(-539.067 -116.195)" fill="#010001"></path><path d="M849.324,386.81v.3a14.968,14.968,0,1,1-29.937,0v-73.5H791.181V515.894h28.156V444.631l0-.3a14.969,14.969,0,1,1,29.938,0v71.566h44.376V313.611H849.324Z" transform="translate(-292.727 -116.032)" fill="#010001"></path><path d="M2261.679,314.355V516.181h-47.374l-10.735-.233-31.428-104.777a2.269,2.269,0,0,0-4.443.653V516.181H2138.65V314.355H2171.7l10.736.232,31.244,108.856a2.27,2.27,0,0,0,4.451-.65L2217,314.355Z" transform="translate(-791.273 -116.307)"></path><path d="M288.489,75.542V225.02L195.166,344.8a22.4,22.4,0,0,0-1.711,25l33.628,58.024H122.852L80.705,358.486a21.883,21.883,0,0,1,1.607-25.03Z" transform="translate(-28.682 -27.95)" fill="#721012"></path><path d="M169.109,446.409H150.581l-40.361-68.871a18.93,18.93,0,0,1,1.644-21.458L299.632,125.773v29.519L133.855,358.453c-7.744,8.668-3.4,16.666-1.388,20.11,9.174,15.672,33.206,56.564,39.812,67.848Z" transform="translate(-39.826 -46.534)" fill="#f5d21d"></path><path d="M218.381,479.782,178.1,413.051a16.253,16.253,0,0,1,1.334-18.59L324.851,215.975V245.5l-122.1,149.782a17.7,17.7,0,0,0-1.455,20.292l38.558,64.212Z" transform="translate(-65.043 -79.908)" fill="#f5d21d"></path></g></svg>