<svg xmlns="http://www.w3.org/2000/svg" xmlns:xlink="http://www.w3.org/1999/xlink" width="1384.489" height="430.513" viewBox="0 0 1384.489 430.513"><defs><clipPath id="a"><rect width="1384.489" height="430.513" fill="none"></rect></clipPath></defs><path d="M488.087,39.018l-80.734,262.7H571.384l21.785-62.152h-107l60.87-199.912Z"></path><path d="M677.747,39.659l-82.336,262.7H654.36l81.374-262.7Z"></path><path d="M683.834,301.083,766.49,39.019h12.815L877.98,178.06,922.832,39.019h59.909L902.007,301.083h-17.3L786.995,162.041,745.025,301.4Z"></path><g clip-path="url(#a)"><path d="M1076.29,39.659l-64.475.761L931.482,300.442h98.034s136.638-14.7,163.389-144.168C1218.856,30.689,1076.29,39.659,1076.29,39.659m52.541,126.547c-23.227,76.914-114.693,74.327-114.693,74.327l42.289-139.362,25.95.32s66,0,46.454,64.715"></path><path d="M1136.52,301.083l.045-.058c-.043.018-.066.037-.045.058"></path><path d="M1384.488,299.8,1348.606,39.018h-11.533L1136.565,301.024c1.9-.8,65.311,1.34,65.311,1.34l26.27-39.086h90.986V299.8ZM1304.4,213.3h-32.037l28.833-41.648,3.2-5.126Z"></path><path d="M0,204.17,93.709,129.2,297.946,393.991s22.586,25.95,40.848,31.236v5.286H194.146s-27.873-.481-46.615-26.431S0,204.17,0,204.17" fill="#fece04"></path><path d="M102.6,122.542l73.285,94.91L431.541,12.494S448.841,0,459.654,0H258.3Z" fill="#a61e35"></path><path d="M403.523,386.4l9.5-45.024H396.164l1.227-5.788h40.436l-1.226,5.788H419.887l-9.5,45.024Z"></path><path d="M450.216,386.4l10.757-50.812h21.55a33.561,33.561,0,0,1,9.67,1.057,9.39,9.39,0,0,1,5.169,3.968,13.332,13.332,0,0,1,1.875,7.349,13.94,13.94,0,0,1-4.1,10.294q-4.1,4.089-13.245,5.3a19.2,19.2,0,0,1,4.241,4.022,45.111,45.111,0,0,1,5.185,9.254l3.924,9.566h-7.673l-3.68-9.463a43.964,43.964,0,0,0-4.554-8.872,9.169,9.169,0,0,0-3.575-3.414,15.616,15.616,0,0,0-5.921-.815h-7.99L457.085,386.4Zm12.789-28.075h9.5q6.588,0,8.585-.173a16.8,16.8,0,0,0,6.378-1.733,9.871,9.871,0,0,0,3.854-3.64,9.428,9.428,0,0,0,1.367-4.922,7.213,7.213,0,0,0-1.017-3.863,5.131,5.131,0,0,0-2.663-2.237,18.607,18.607,0,0,0-5.605-.589H466.65Z"></path><path d="M513.028,386.395l29.118-50.811h8.1l8.479,50.811h-6.657l-2.488-14.627H528.8l-8.234,14.627Zm18.711-19.86h16.995l-2-12.755q-1.155-7.59-1.436-12.651a91.5,91.5,0,0,1-5.116,10.363Z"></path><path d="M581.622,386.4l10.758-50.812h6.658l8.654,19.064q3.96,8.733,6.273,14.7,1.33,3.465,3.083,9.358.945-6.411,2.383-13.241l6.307-29.877h6.693L621.709,386.4h-6.8l-12.754-29.358a144.329,144.329,0,0,1-5.291-13.689q-.525,4.955-2.033,12.164L588.315,386.4Z"></path><path d="M650.776,369.967l6.728-.624-.07,1.768a10.857,10.857,0,0,0,1.366,5.39,8.915,8.915,0,0,0,4.52,3.777,19.166,19.166,0,0,0,7.5,1.335q6.167,0,9.409-2.669a7.788,7.788,0,0,0,3.24-6.1,6.513,6.513,0,0,0-1.716-4.368q-1.754-1.939-9.567-5.267a69.252,69.252,0,0,1-8.269-3.986,16.34,16.34,0,0,1-5.116-4.9,11.229,11.229,0,0,1-1.647-6.048,12.174,12.174,0,0,1,2.173-7.071,13.51,13.51,0,0,1,6.359-4.819,25.423,25.423,0,0,1,9.444-1.663,24.214,24.214,0,0,1,10.582,2.08,13.693,13.693,0,0,1,6.255,5.546,13.55,13.55,0,0,1,1.945,6.619c0,.208-.013.555-.035,1.04l-6.623.519a11.517,11.517,0,0,0-.386-3.361,8.845,8.845,0,0,0-2.172-3.57,10.5,10.5,0,0,0-4.047-2.34,17.692,17.692,0,0,0-5.764-.884q-5.607,0-8.725,2.5a6.156,6.156,0,0,0-2.383,5.061,5.894,5.894,0,0,0,.981,3.344,10.006,10.006,0,0,0,3.539,2.894q1.821,1.005,8.655,3.986a58.183,58.183,0,0,1,7.639,3.812,13.235,13.235,0,0,1,4.31,4.454,11.7,11.7,0,0,1,1.507,5.945,12.636,12.636,0,0,1-2.541,7.608,16.406,16.406,0,0,1-7.025,5.39,26.063,26.063,0,0,1-10.267,1.906q-8.725,0-14.244-3.762t-5.554-13.534"></path><path d="M712.467,386.395l10.756-50.811h21.445q5.571,0,8.357,1.264a10.381,10.381,0,0,1,4.609,4.333,13.231,13.231,0,0,1,1.82,6.88,17.292,17.292,0,0,1-1.294,6.412,16.943,16.943,0,0,1-3.276,5.373,15.635,15.635,0,0,1-4.012,3.189,17.5,17.5,0,0,1-4.345,1.594,44.191,44.191,0,0,1-9.987,1.143H723.68l-4.345,20.623Zm12.44-26.376h11.316q6.59,0,9.673-1.4a11.379,11.379,0,0,0,4.938-4.281,11.056,11.056,0,0,0,1.858-6.1,7.609,7.609,0,0,0-.98-4.071,5.8,5.8,0,0,0-2.769-2.324q-1.788-.744-6.869-.744H728.9Z"></path><path d="M779.588,365.114q0-13.587,7.937-21.992a25.5,25.5,0,0,1,19.254-8.4q9.6,0,15.645,6.185t6.045,16.586a31.349,31.349,0,0,1-3.048,13.76,29.308,29.308,0,0,1-5.747,8.2,26.789,26.789,0,0,1-7.429,5.32,25.65,25.65,0,0,1-11.142,2.5,22.125,22.125,0,0,1-11.231-2.912,18.97,18.97,0,0,1-7.674-8.128,24.488,24.488,0,0,1-2.61-11.108m6.763.346a18.077,18.077,0,0,0,1.874,8.214,13.641,13.641,0,0,0,5.589,5.858,15.551,15.551,0,0,0,7.814,2.115,16.142,16.142,0,0,0,7.534-1.854,21.208,21.208,0,0,0,6.394-5.165,24.41,24.41,0,0,0,4.451-8.145,29.658,29.658,0,0,0,1.629-9.514q0-7.59-4.293-12.1a14.054,14.054,0,0,0-10.6-4.506q-8.06,0-14.226,6.81t-6.167,18.283"></path><path d="M848.005,386.4l10.758-50.812h21.551a33.565,33.565,0,0,1,9.67,1.057,9.388,9.388,0,0,1,5.168,3.968,13.332,13.332,0,0,1,1.876,7.349,13.937,13.937,0,0,1-4.1,10.294q-4.1,4.089-13.244,5.3a19.2,19.2,0,0,1,4.238,4.022,45.028,45.028,0,0,1,5.187,9.254l3.925,9.566h-7.675l-3.679-9.463a44.015,44.015,0,0,0-4.554-8.872,9.169,9.169,0,0,0-3.575-3.414,15.625,15.625,0,0,0-5.922-.815h-7.989L854.873,386.4ZM860.8,358.321h9.5q6.585,0,8.585-.173a16.784,16.784,0,0,0,6.376-1.733,9.873,9.873,0,0,0,3.855-3.64,9.428,9.428,0,0,0,1.367-4.922,7.212,7.212,0,0,0-1.016-3.863,5.133,5.133,0,0,0-2.664-2.237,18.61,18.61,0,0,0-5.606-.589H864.44Z"></path><path d="M927.252,386.4l9.5-45.024H919.894l1.226-5.788h40.437l-1.227,5.788H943.616l-9.5,45.024Z"></path><path d="M963.818,386.395l29.118-50.811h8.1l8.479,50.811h-6.657l-2.488-14.627H979.587l-8.235,14.627Zm18.712-19.86h16.995l-2-12.755q-1.156-7.59-1.437-12.651a91.344,91.344,0,0,1-5.116,10.363Z"></path><path d="M1072.184,368.511l6.8.936q-3.225,8.8-9.391,13.31a22.89,22.89,0,0,1-13.841,4.506q-9.356,0-14.839-5.65t-5.484-16.187q0-13.725,8.34-22.7a24.16,24.16,0,0,1,18.466-8.006q8.164,0,13.228,4.331a17.178,17.178,0,0,1,5.869,11.646l-6.413.589q-1.017-5.511-4.187-8.231a12.12,12.12,0,0,0-8.182-2.721q-9.426,0-15.242,8.283a28.614,28.614,0,0,0-5.046,16.949q0,7.833,3.89,11.959a13.284,13.284,0,0,0,10.127,4.123,15.081,15.081,0,0,0,9.635-3.431,19.405,19.405,0,0,0,6.273-9.705"></path><path d="M1100.62,386.4l10.758-50.812h6.833L1107.488,386.4Z"></path><path d="M1138.8,365.114q0-13.587,7.937-21.992a25.5,25.5,0,0,1,19.254-8.4q9.6,0,15.645,6.185t6.045,16.586a31.349,31.349,0,0,1-3.048,13.76,29.307,29.307,0,0,1-5.747,8.2,26.791,26.791,0,0,1-7.429,5.32,25.65,25.65,0,0,1-11.142,2.5,22.124,22.124,0,0,1-11.231-2.912,18.971,18.971,0,0,1-7.674-8.128,24.486,24.486,0,0,1-2.61-11.108m6.763.346a18.077,18.077,0,0,0,1.874,8.214,13.64,13.64,0,0,0,5.589,5.858,15.551,15.551,0,0,0,7.814,2.115,16.142,16.142,0,0,0,7.534-1.854,21.209,21.209,0,0,0,6.394-5.165,24.411,24.411,0,0,0,4.451-8.145,29.656,29.656,0,0,0,1.629-9.514q0-7.59-4.293-12.1a14.054,14.054,0,0,0-10.6-4.506q-8.059,0-14.226,6.81t-6.167,18.283"></path><path d="M1207.357,386.4l10.756-50.812h6.659l8.655,19.064q3.957,8.733,6.272,14.7,1.331,3.465,3.084,9.358.945-6.411,2.382-13.241l6.308-29.877h6.692L1247.442,386.4h-6.8l-12.755-29.358a144.047,144.047,0,0,1-5.291-13.689q-.525,4.955-2.033,12.164l-6.517,30.883Z"></path><path d="M1274.69,386.4l10.758-50.812h37.072l-1.226,5.788h-30.206l-3.363,15.8h29.434l-1.226,5.788H1286.5l-3.715,17.678h32.343L1313.9,386.4Z"></path><path d="M1340.165,369.967l6.728-.624-.071,1.768a10.87,10.87,0,0,0,1.367,5.39,8.917,8.917,0,0,0,4.521,3.777,19.154,19.154,0,0,0,7.5,1.335q6.166,0,9.408-2.669a7.789,7.789,0,0,0,3.241-6.1,6.509,6.509,0,0,0-1.717-4.368q-1.752-1.939-9.566-5.267a69.167,69.167,0,0,1-8.269-3.986,16.34,16.34,0,0,1-5.116-4.9,11.227,11.227,0,0,1-1.646-6.048,12.18,12.18,0,0,1,2.172-7.071,13.51,13.51,0,0,1,6.359-4.819,25.426,25.426,0,0,1,9.444-1.663,24.22,24.22,0,0,1,10.582,2.08,13.7,13.7,0,0,1,6.255,5.546,13.561,13.561,0,0,1,1.945,6.619c0,.208-.013.555-.035,1.04l-6.623.519a11.592,11.592,0,0,0-.385-3.361,8.869,8.869,0,0,0-2.173-3.57,10.5,10.5,0,0,0-4.048-2.34,17.686,17.686,0,0,0-5.763-.884q-5.607,0-8.726,2.5a6.158,6.158,0,0,0-2.382,5.061,5.879,5.879,0,0,0,.982,3.344,9.982,9.982,0,0,0,3.538,2.894q1.822,1.005,8.655,3.986a58.084,58.084,0,0,1,7.638,3.812,13.227,13.227,0,0,1,4.311,4.454,11.7,11.7,0,0,1,1.506,5.945,12.635,12.635,0,0,1-2.54,7.608,16.4,16.4,0,0,1-7.025,5.39,26.062,26.062,0,0,1-10.267,1.906q-8.724,0-14.245-3.762t-5.553-13.534"></path></g></svg>