<svg xmlns="http://www.w3.org/2000/svg" xmlns:xlink="http://www.w3.org/1999/xlink" width="1544.622" height="714.059" viewBox="0 0 1544.622 714.059"><defs><clipPath id="a"><rect width="1544.622" height="714.059" fill="none"></rect></clipPath></defs><g clip-path="url(#a)"><path d="M595.908,494.821V339.688a9.819,9.819,0,0,0-9.819-9.818h-57.6V494.821H475.414V142.483a16.428,16.428,0,0,1,16.429-16.428H636.514A38.743,38.743,0,0,1,675.257,164.8v88.369c0,31.477-8.53,51.087-40.007,51.087,31.477,0,40.007,18.2,40.007,41.219V494.821ZM538.373,287.77h47.291a10.243,10.243,0,0,0,10.244-10.244V178.035a9.881,9.881,0,0,0-9.881-9.881H538.373a9.881,9.881,0,0,0-9.881,9.881v99.854a9.881,9.881,0,0,0,9.881,9.881"></path><path d="M873.939,434.39v60.395H760.378a56.816,56.816,0,0,1-56.567-56.567V126.033h60.4v297.3a11.259,11.259,0,0,0,11.058,11.057Z"></path><path d="M420.671,552.6H402.843v82.51H385.351V552.6H367.524v-16.16h53.147Z"></path><path d="M994.328,552.6H976.5v82.51H959.008V552.6H941.181v-16.16h53.147Z"></path><path d="M471.374,635.107V593.6a2.628,2.628,0,0,0-2.628-2.627H453.335v44.135h-14.2V540.833a4.4,4.4,0,0,1,4.4-4.4h38.709A10.367,10.367,0,0,1,492.6,546.8v23.645c0,8.422-2.282,13.669-10.7,13.669,8.422,0,10.7,4.868,10.7,11.028v39.961Zm-15.395-55.4h12.653a2.741,2.741,0,0,0,2.742-2.74V550.346a2.644,2.644,0,0,0-2.645-2.644h-12.75a2.644,2.644,0,0,0-2.644,2.644v26.717a2.644,2.644,0,0,0,2.644,2.644"></path><path d="M564.265,551.687v83.42H542.856V590.971h-18.25v44.136h-13.93v-83.42a15.227,15.227,0,0,1,15.137-15.25h23.2a15.251,15.251,0,0,1,15.251,15.25m-21.409-.912v-.429a2.644,2.644,0,0,0-2.644-2.644H527.25a2.643,2.643,0,0,0-2.644,2.643v26.718a2.644,2.644,0,0,0,2.644,2.644h12.962a2.644,2.644,0,0,0,2.644-2.644Z"></path><path d="M642.134,536.437v98.67H618.973l-5.248-.113-15.364-51.225a1.109,1.109,0,0,0-2.172.319v51.019h-14.2v-98.67h16.16l5.248.114,15.276,53.218a1.109,1.109,0,0,0,2.175-.318l-.556-53.014Z"></path><path d="M735.14,536.437h33.907A15.251,15.251,0,0,1,784.3,551.688v24.147a15.136,15.136,0,0,1-15.137,15.136H744.939v44.136h-14.2V540.841a4.4,4.4,0,0,1,4.4-4.4m27.749,40.626V550.587A2.886,2.886,0,0,0,760,547.7H747.824a2.885,2.885,0,0,0-2.885,2.885v26.476a2.643,2.643,0,0,0,2.643,2.644h12.663a2.644,2.644,0,0,0,2.644-2.644"></path><path d="M853.787,551.687v68.284a15.227,15.227,0,0,1-15.251,15.136H815.192a15.2,15.2,0,0,1-15.136-15.136V551.687a15.227,15.227,0,0,1,15.136-15.25h23.344a15.251,15.251,0,0,1,15.251,15.25m-21.409-1.342a2.644,2.644,0,0,0-2.644-2.644H816.9a2.643,2.643,0,0,0-2.643,2.644V621.2a2.643,2.643,0,0,0,2.643,2.643h12.833a2.644,2.644,0,0,0,2.644-2.643V550.345Z"></path><rect width="20.43" height="98.67" transform="translate(1155.642 536.437)"></rect><path d="M1360.631,555.671v19.435a2.643,2.643,0,0,0,2.644,2.643h31.384V593.91h-31.384a2.644,2.644,0,0,0-2.644,2.644V616.3a2.651,2.651,0,0,0,2.644,2.643h31.384v16.161h-35.052a15.182,15.182,0,0,1-15.137-15.136V551.688a15.227,15.227,0,0,1,15.137-15.25h35.052V552.6H1363.59a3.037,3.037,0,0,0-2.959,3.073"></path><path d="M1326.393,536.438v98.67h-23.161l-5.248-.114L1282.62,583.77a1.109,1.109,0,0,0-2.172.318v51.02h-14.2v-98.67h16.16l5.249.113,15.275,53.218a1.109,1.109,0,0,0,2.175-.317l-.556-53.014Z"></path><path d="M691.269,635.107H670.44c-8.213,0-12.522-6.946-12.522-14.048v-3.524h19.541c0,.122,0,.241,0,.359.075,4.144,1.475,5.948,6.306,5.948h6.47a3.038,3.038,0,0,0,3.073-2.959V594.512a2.959,2.959,0,0,0-2.959-2.959h-17.3A15.228,15.228,0,0,1,657.918,576.3V551.687a15.227,15.227,0,0,1,15.136-15.25h29.123c8.214,0,12.522,6.946,12.522,14.048v4.5h-20.27v-1.051c-.014-4.349-1.368-6.236-6.308-6.236H674.764a2.643,2.643,0,0,0-2.644,2.643V577.1a3.037,3.037,0,0,0,2.959,3.072h24.37A15.228,15.228,0,0,1,714.7,595.31v24.661a15.227,15.227,0,0,1-15.25,15.136Z" fill="#010001"></path><path d="M1100.409,635.107h24.582c8.213,0,12.522-6.946,12.522-14.048V609.785h-20.27v7.79c-.008,4.371-1.356,6.267-6.309,6.267h-9.947a3.014,3.014,0,0,1-2.96-2.959V550.775a3.038,3.038,0,0,1,2.96-3.073h9.947c4.953,0,6.3,1.9,6.309,6.267v7.791h20.27V550.485c0-7.1-4.309-14.048-12.522-14.048H1097a15.227,15.227,0,0,0-15.136,15.25v68.284A15.2,15.2,0,0,0,1097,635.107Z" fill="#010001"></path><path d="M904.254,635.107V593.6a2.628,2.628,0,0,0-2.628-2.627H886.215v44.135h-14.2V540.833a4.4,4.4,0,0,1,4.4-4.4h38.709A10.367,10.367,0,0,1,925.484,546.8v23.645c0,8.422-2.282,13.669-10.7,13.669,8.422,0,10.7,4.868,10.7,11.028v39.961Zm-15.4-55.4h12.653a2.741,2.741,0,0,0,2.742-2.74V550.346a2.645,2.645,0,0,0-2.645-2.644h-12.75a2.644,2.644,0,0,0-2.644,2.644v26.717a2.644,2.644,0,0,0,2.644,2.644"></path><path d="M1063.68,551.687v83.42h-21.409V590.971h-18.25v44.136h-13.93v-83.42a15.227,15.227,0,0,1,15.137-15.25h23.2a15.25,15.25,0,0,1,15.25,15.25m-21.409-.912v-.429a2.644,2.644,0,0,0-2.644-2.644h-12.962a2.643,2.643,0,0,0-2.644,2.643v26.718a2.644,2.644,0,0,0,2.644,2.644h12.962a2.644,2.644,0,0,0,2.644-2.644Z"></path><path d="M1248.045,551.687v68.284a15.227,15.227,0,0,1-15.252,15.136h-23.344a15.2,15.2,0,0,1-15.136-15.136V551.687a15.227,15.227,0,0,1,15.136-15.25h23.344a15.251,15.251,0,0,1,15.252,15.25m-21.41-1.342a2.644,2.644,0,0,0-2.644-2.644h-12.833a2.643,2.643,0,0,0-2.642,2.644V621.2a2.642,2.642,0,0,0,2.642,2.643h12.833a2.643,2.643,0,0,0,2.644-2.643V550.345Z"></path><path d="M1443.731,635.107H1422.9c-8.213,0-12.522-6.946-12.522-14.048v-3.524h19.541c0,.122,0,.241,0,.359.074,4.144,1.474,5.948,6.3,5.948h6.47a3.038,3.038,0,0,0,3.073-2.959V594.512a2.959,2.959,0,0,0-2.959-2.959h-17.3A15.228,15.228,0,0,1,1410.38,576.3V551.687a15.227,15.227,0,0,1,15.136-15.25h29.123c8.214,0,12.522,6.946,12.522,14.048v4.5h-20.27v-1.051c-.014-4.349-1.367-6.236-6.308-6.236h-13.357a2.643,2.643,0,0,0-2.644,2.643V577.1a3.037,3.037,0,0,0,2.959,3.072h24.37a15.228,15.228,0,0,1,15.25,15.137v24.661a15.227,15.227,0,0,1-15.25,15.136Z" fill="#010001"></path><path d="M412.556,75.874V313.135L264.427,503.253a35.562,35.562,0,0,0-2.716,39.687l53.376,92.1H149.646l-66.9-110.058a34.735,34.735,0,0,1,2.551-39.73Z" fill="#721012"></path><path d="M205.382,635.04H175.973L111.91,525.723a30.047,30.047,0,0,1,2.609-34.06L412.557,126.105v46.854L149.422,495.43c-12.291,13.758-5.4,26.454-2.2,31.92,14.563,24.875,52.707,89.782,63.192,107.693Z" fill="#f5d21d"></path><path d="M243.561,635.04,179.63,529.12a25.8,25.8,0,0,1,2.117-29.507l230.81-283.306v46.858L218.747,500.91a28.088,28.088,0,0,0-2.31,32.208l61.2,101.922Z" fill="#f5d21d"></path></g></svg>